<svg height="512pt" viewBox="0 -11 512 511" width="512pt" xmlns="http://www.w3.org/2000/svg"><path d="m365.875 341.191406c-37.777344-56.644531-103.402344-91.832031-171.261719-91.832031-44.269531 0-88.648437 15.242187-124.960937 42.914063-34.445313 26.246093-58.992188 61.042968-69.117188 97.976562l-.535156 1.945312v36.050782l378.570312-68.015625zm0 0" fill="#56c225"/><path d="m365.875 341.191406c-37.777344-56.644531-103.402344-91.832031-171.261719-91.832031-1.777343 0-3.550781.035156-5.328125.082031v144.796875l189.285156-34.011719zm0 0" fill="#49a520"/><path d="m497 329.902344c-111.574219 0-323.207031 8.605468-486.980469 66.261718l-10.019531 3.527344v89.621094h512v-159.410156zm0 0" fill="#90e36a"/><path d="m137.761719 95.195312h-32.441407c-21.230468 0-38.5 17.269532-38.5 38.5v51.667969c0 21.230469 17.269532 38.5 38.5 38.5h32.441407c21.226562 0 38.5-17.269531 38.5-38.5v-51.667969c0-21.230468-17.273438-38.5-38.5-38.5zm0 0" fill="#70da40"/><path d="m137.761719 95.195312h-16.222657v128.667969h16.222657c21.226562 0 38.5-17.269531 38.5-38.5v-51.667969c0-21.230468-17.273438-38.5-38.5-38.5zm0 0" fill="#56c225"/><path d="m106.539062 188.863281h30v90.480469h-30zm0 0" fill="#99503d"/><path d="m121.539062 188.863281h15v90.480469h-15zm0 0" fill="#804231"/><path d="m270.378906 108.210938h-28.703125c-21.230469 0-38.5 17.269531-38.5 38.5v47.023437c0 21.226563 17.269531 38.5 38.5 38.5h28.703125c21.226563 0 38.496094-17.273437 38.496094-38.5v-47.023437c0-21.226563-17.269531-38.5-38.496094-38.5zm0 0" fill="#70da40"/><path d="m270.378906 108.210938h-14.351562v124.023437h14.351562c21.226563 0 38.496094-17.273437 38.496094-38.5v-47.023437c0-21.226563-17.269531-38.5-38.496094-38.5zm0 0" fill="#56c225"/><path d="m241.027344 197.234375h29.996094v77.46875h-29.996094zm0 0" fill="#99503d"/><path d="m256.027344 197.234375h14.996094v77.46875h-14.996094zm0 0" fill="#804231"/><path d="m512 329.902344h-15c-59.410156 0-147.1875 2.441406-241 13.425781v145.984375h256zm0 0" fill="#70da40"/></svg>